<?xml version="1.0" standalone="no"?>
<!DOCTYPE svg PUBLIC "-//W3C//DTD SVG 20010904//EN" "http://www.w3.org/TR/2001/REC-SVG-20010904/DTD/svg10.dtd">
<svg version="1.0" xmlns="http://www.w3.org/2000/svg" width="1024.000000pt" height="1024.000000pt"
  viewBox="0 0 1024.000000 1024.000000" preserveAspectRatio="xMidYMid meet">
  
  <g transform="translate(0.000000,1024.000000) scale(0.100000,-0.100000)" fill="#84b4d8" stroke="none">
    <path d="M5205 8792 c-623 -467 -903 -1237 -689 -1897 80 -248 171 -391 479
-760 201 -241 272 -336 328 -444 124 -239 139 -478 48 -758 -58 -178 -174
-393 -211 -393 -4 0 -37 39 -72 88 -86 116 -154 195 -345 394 -90 94 -187 206
-222 258 -112 163 -200 380 -221 542 -5 44 -12 83 -14 86 -3 2 -26 -28 -52
-68 -232 -359 -265 -792 -89 -1157 76 -157 166 -261 433 -502 231 -208 389
-456 480 -755 22 -71 42 -124 46 -118 3 6 26 71 50 145 50 152 114 310 221
538 101 215 183 365 345 624 167 268 244 406 303 547 223 522 203 992 -66
1523 -64 127 -128 227 -445 693 -107 158 -218 374 -262 512 -79 243 -90 503
-32 730 16 63 42 142 56 174 14 33 25 60 23 62 -2 2 -43 -27 -92 -64z" />
    <path d="M2877 3809 c-17 -68 -267 -1266 -267 -1280 0 -9 -3 -8 215 -39 560
-79 1034 -224 1490 -454 231 -117 401 -221 626 -383 88 -63 166 -116 173 -119
7 -3 41 15 77 40 204 143 399 272 509 336 522 303 1072 487 1749 584 96 14
176 27 178 30 2 2 -37 199 -86 437 -50 239 -108 522 -131 629 -22 107 -42 205
-45 218 -7 27 -27 28 -215 7 -713 -82 -1215 -290 -1578 -656 -181 -183 -307
-372 -393 -589 -22 -58 -46 -108 -52 -112 -7 -4 -17 7 -26 30 -197 518 -590
898 -1161 1125 -266 106 -632 186 -971 213 -85 6 -86 6 -92 -17z" />
  </g>
</svg>